# xmcd
#
# Track frame offsets:
#	150
#	13865
#	35440
#	59488
#	73994
#	93572
#	107522
#	119745
#	133155
#	145971
#	165784
#	183134
#	202616
#	220406
#	247254
#	261752
#
# Disc length: 3674 seconds
#
# Revision: 1
# Processed by: cddbd v1.4PL0 Copyright (c) Steve Scherf et al.
# Submitted via: audiograbber 1.80.04
#
DISCID=f00e5810
DTITLE=Geronimo Trevino III - Live from Kendallia Halle
DYEAR=1997
DGENRE=Country
TTITLE0=Crazy Arms
TTITLE1=El Paso
TTITLE2=Hank Williams Medley
TTITLE3=Little Red Headed Stranger
TTITLE4=La Vida
TTITLE5=I Luv Me Trucka
TTITLE6=Hangin' Tree
TTITLE7=Waltz Across Texas
TTITLE8=Daddy's Honky Tonk
TTITLE9=Cherokee Rose
TTITLE10=Kaw-Liga
TTITLE11=Warmth of Mexico
TTITLE12=Fraulein
TTITLE13=Dust of the Chase
TTITLE14=I Love You Because
TTITLE15=Cold Cold War
EXTD=
EXTT0=
EXTT1=
EXTT2=
EXTT3=
EXTT4=
EXTT5=
EXTT6=
EXTT7=
EXTT8=
EXTT9=
EXTT10=
EXTT11=
EXTT12=
EXTT13=
EXTT14=
EXTT15=
PLAYORDER=
